<svg width="1920" height="399" viewBox="0 0 1920 399" fill="none" xmlns="http://www.w3.org/2000/svg">
<g filter="url(#filter0_d)">
<path d="M223.354 141.623C223.354 141.623 237.075 62.4461 314.178 65.0635C391.28 67.6809 398.467 128.536 398.467 128.536C398.467 128.536 416.663 104.928 450.641 118.015C484.618 131.102 480.797 157.982 480.797 157.982C480.797 157.982 560.193 137.966 572.927 207.712C585.662 277.459 480.797 281 480.797 281H189.377C181.094 280.205 114.829 242.913 134.699 187.466C154.569 132.018 223.354 141.623 223.354 141.623Z" fill="white"/>
<path d="M1716.1 319.822H1413.89C1352.97 319.822 1317.97 180.929 1461.9 180.929C1492.47 27.329 1648.98 81.8687 1674.44 131.576C1815.49 129.565 1829.85 269.34 1716.1 319.822Z" fill="white"/>
<path d="M997.775 102.537C937.097 88.0794 906.758 140.13 906.758 140.13C906.758 140.13 861.251 117.718 820.799 140.13C780.346 162.543 780.345 219.655 780.345 219.655C780.345 219.655 711 210.253 711 281.1C711 351.948 796.237 336.047 796.237 336.047C796.237 336.047 797.682 367.134 838.134 372.19C878.586 377.247 890.144 358.458 890.144 358.458C890.144 358.458 924.094 397.493 967.436 398.939C1010.78 400.384 1051.23 375.809 1051.23 375.809C1051.23 375.809 1082.29 384.48 1099.63 380.865C1116.96 377.251 1135.02 354.117 1135.02 354.117C1135.02 354.117 1209.43 375.086 1223.15 307.849C1236.88 240.612 1169.7 236.279 1169.7 236.279C1169.7 236.279 1174.75 195.794 1135.02 171.938C1095.29 148.081 1060.62 167.6 1060.62 167.6C1060.62 167.6 1058.45 116.995 997.775 102.537Z" fill="white"/>
<path d="M340 141H0C0.399346 122.297 5.37432 112.335 34.4774 96.7974C30.6395 8.58312 125.68 -3.15791 161.248 54.1926C197.236 49.9425 203.985 62.3627 214.821 73.3648C251.968 76.2656 262.321 89.4238 272.637 106.384C320.768 85.3874 336.447 115.269 340 141Z" fill="white" fill-opacity="0.7"/>
<path d="M1005 234H1326C1325.62 216.524 1320.93 207.215 1293.45 192.696C1297.07 110.266 1207.34 99.2951 1173.76 152.885C1139.79 148.913 1133.41 160.519 1123.18 170.8C1088.11 173.51 1078.34 185.806 1068.6 201.653C1023.16 182.034 1008.35 209.956 1005 234Z" fill="white" fill-opacity="0.7"/>
<path d="M1920 156.584H1576C1579.81 122.26 1592.19 111.903 1630.5 107.584C1630.5 10.585 1770.5 -1.41603 1788 98.5842C1819.5 94.7645 1833.49 99.669 1851 123.084C1898.35 113.128 1909.74 124.658 1920 156.584Z" fill="white" fill-opacity="0.68"/>
<path d="M918 361.584H574C577.808 327.26 590.185 316.903 628.5 312.584C628.5 215.585 768.5 203.584 786 303.584C817.497 299.764 831.494 304.669 849 328.084C896.352 318.128 907.742 329.658 918 361.584Z" fill="white" fill-opacity="0.68"/>
</g>
<defs>
<filter id="filter0_d" x="-6" y="0" width="1932" height="399" filterUnits="userSpaceOnUse" color-interpolation-filters="sRGB">
<feFlood flood-opacity="0" result="BackgroundImageFix"/>
<feColorMatrix in="SourceAlpha" type="matrix" values="0 0 0 0 0 0 0 0 0 0 0 0 0 0 0 0 0 0 127 0"/>
<feOffset dy="-13"/>
<feGaussianBlur stdDeviation="3"/>
<feColorMatrix type="matrix" values="0 0 0 0 0 0 0 0 0 0 0 0 0 0 0 0 0 0 0.25 0"/>
<feBlend mode="normal" in2="BackgroundImageFix" result="effect1_dropShadow"/>
<feBlend mode="normal" in="SourceGraphic" in2="effect1_dropShadow" result="shape"/>
</filter>
</defs>
</svg>
