<svg width="1920" height="1128" viewBox="0 0 1920 1128" fill="none" xmlns="http://www.w3.org/2000/svg">
<path d="M1275.14 44.7589C1185.19 23.3384 1140.21 100.457 1140.21 100.457C1140.21 100.457 1072.75 67.2504 1012.78 100.457C952.806 133.663 952.803 218.282 952.803 218.282C952.803 218.282 830 199.5 830 317C830 434.5 976.363 390.729 976.363 390.729C976.363 390.729 978.505 436.787 1038.47 444.278C1098.44 451.77 1115.58 423.933 1115.58 423.933C1115.58 423.933 1165.91 481.767 1230.16 483.909C1294.42 486.051 1354.39 449.64 1354.39 449.64C1354.39 449.64 1400.44 462.487 1426.14 457.132C1451.84 451.776 1478.61 417.501 1478.61 417.501C1478.61 417.501 1588.91 448.569 1609.26 348.95C1629.61 249.332 1530.01 242.911 1530.01 242.911C1530.01 242.911 1537.51 182.929 1478.61 147.583C1419.71 112.237 1368.31 141.156 1368.31 141.156C1368.31 141.156 1365.1 66.1794 1275.14 44.7589Z" fill="white"/>
<path d="M408.528 192.411C326.955 172.973 286.169 242.954 286.169 242.954C286.169 242.954 224.991 212.821 170.609 242.954C116.226 273.087 116.224 349.874 116.224 349.874C116.224 349.874 23.0001 337.233 23 432.486C22.9999 527.739 137.589 506.361 137.589 506.361C137.589 506.361 139.531 548.156 193.913 554.955C248.295 561.753 263.833 536.493 263.833 536.493C263.833 536.493 309.475 588.974 367.742 590.917C426.008 592.861 480.39 559.82 480.39 559.82C480.39 559.82 522.148 571.478 545.454 566.618C568.761 561.758 593.039 530.655 593.039 530.655C593.039 530.655 693.063 558.848 711.514 468.449C729.965 378.05 639.652 372.224 639.652 372.224C639.652 372.224 646.45 317.794 593.039 285.719C539.628 253.644 493.015 279.887 493.015 279.887C493.015 279.887 490.101 211.849 408.528 192.411Z" fill="white"/>
<path fill-rule="evenodd" clip-rule="evenodd" d="M1920 155.385C1890.11 171.314 1875.17 196.955 1875.17 196.955C1875.17 196.955 1813.99 166.821 1759.61 196.955C1705.23 227.088 1705.22 303.875 1705.22 303.875C1705.22 303.875 1612 291.234 1612 386.487C1612 481.74 1726.59 460.362 1726.59 460.362C1726.59 460.362 1728.53 502.157 1782.91 508.955C1837.3 515.753 1852.83 490.493 1852.83 490.493C1852.83 490.493 1880.38 522.172 1920 537.216V155.385Z" fill="white"/>
<g filter="url(#filter0_d)">
<path d="M995 559.5C995 701.713 879.713 817 737.5 817C595.287 817 480 701.713 480 559.5C480 417.287 595.287 302 737.5 302C879.713 302 995 417.287 995 559.5Z" fill="#FFBC5A"/>
<path d="M0 256.5L662.5 555.5L1384.5 120L1920 466.5V1127.5H0V256.5Z" fill="url(#paint0_linear)"/>
</g>
<defs>
<filter id="filter0_d" x="-60" y="0" width="2040" height="1127.5" filterUnits="userSpaceOnUse" color-interpolation-filters="sRGB">
<feFlood flood-opacity="0" result="BackgroundImageFix"/>
<feColorMatrix in="SourceAlpha" type="matrix" values="0 0 0 0 0 0 0 0 0 0 0 0 0 0 0 0 0 0 127 0"/>
<feOffset dy="-60"/>
<feGaussianBlur stdDeviation="30"/>
<feColorMatrix type="matrix" values="0 0 0 0 0 0 0 0 0 0 0 0 0 0 0 0 0 0 0.25 0"/>
<feBlend mode="normal" in2="BackgroundImageFix" result="effect1_dropShadow"/>
<feBlend mode="normal" in="SourceGraphic" in2="effect1_dropShadow" result="shape"/>
</filter>
<linearGradient id="paint0_linear" x1="960" y1="47.5001" x2="960" y2="1127.5" gradientUnits="userSpaceOnUse">
<stop stop-color="#FF8F4C"/>
<stop offset="0.876365" stop-color="#DB2343"/>
</linearGradient>
</defs>
</svg>
