<svg width="1920" height="3396" viewBox="0 0 1920 3396" fill="none" xmlns="http://www.w3.org/2000/svg">
<g filter="url(#filter0_i)">
<path fill-rule="evenodd" clip-rule="evenodd" d="M80.5879 237.091C16.4715 255.84 0 309.091 0 309.091V490V1562V3396H1920V1562V490.091H1920.09V309.091C1920.09 309.091 1875.09 216.967 1769.59 237.091C1686.45 252.949 1657.96 219.909 1636.41 194.912C1630.61 188.187 1625.31 182.044 1619.59 177.591C1592.59 156.591 1565.09 148.091 1534.09 148.091C1524 148.091 1512.12 149.203 1499.95 150.341C1474.71 152.701 1448.26 155.175 1434.09 148.091C1429.28 145.69 1421.98 140.045 1412.64 132.822C1381.15 108.472 1326.46 66.19 1266.09 69.7996C1252.78 70.5952 1240.65 72.5515 1228.71 74.4767C1201.89 78.8024 1176.04 82.9713 1140 73.4658C1111.93 66.0607 1083.95 52.0114 1056.38 38.1658C1014.13 16.947 972.836 -3.79349 933.588 0.591488C880.668 6.50405 847.692 28.2188 820.052 46.4194C797.784 61.0831 778.98 73.4658 756 73.4658C737.663 73.4658 719.971 71.5055 701.992 69.5134C669.475 65.9104 636.015 62.203 596.088 69.7996C560.888 76.4968 534.393 100.823 512.849 120.603C496.443 135.665 482.909 148.091 470.588 148.091C464.794 148.091 457.843 147.327 449.899 146.453C418.764 143.029 372.374 137.926 320.588 170.591C295.499 186.417 284.564 201.277 275.908 213.04C262.137 231.753 254.133 242.631 204.088 237.091C122.584 228.07 106.222 229.596 80.5879 237.091Z" fill="url(#paint0_linear)"/>
</g>
<line x1="136.503" y1="452.906" x2="150.503" y2="230.906" stroke="white" stroke-width="3"/>
<path d="M370.505 308.129L355 153" stroke="white" stroke-width="3"/>
<line x1="1780.43" y1="451.152" x2="1759.51" y2="239.147" stroke="white" stroke-width="3"/>
<path d="M612.503 186.906L622 67" stroke="white" stroke-width="3"/>
<line x1="1298.52" y1="166.229" x2="1283.52" y2="69.2292" stroke="white" stroke-width="3"/>
<line x1="1553.5" y1="333.906" x2="1565.44" y2="151.901" stroke="white" stroke-width="3"/>
<line x1="946.411" y1="167" x2="946.411" y2="-3.05176e-05" stroke="white" stroke-width="3"/>
<g filter="url(#filter1_d)">
<path fill-rule="evenodd" clip-rule="evenodd" d="M223.726 500.125C213.984 502.209 203.614 502.079 193.33 499.323C158.63 490.025 138.037 454.358 147.335 419.658C151.019 405.909 158.842 394.376 169.105 386.038C145.975 390.987 126.378 408.418 119.836 432.834C110.538 467.534 131.13 503.202 165.83 512.5C186.782 518.114 208.087 512.831 223.726 500.125Z" fill="#CCCCCC"/>
<path fill-rule="evenodd" clip-rule="evenodd" d="M1709.44 508.646C1719.37 507.836 1729.26 504.726 1738.32 499.125C1768.87 480.228 1778.32 440.141 1759.42 409.589C1751.94 397.484 1741.12 388.692 1728.89 383.663C1752.47 381.741 1776.26 392.79 1789.55 414.288C1808.45 444.84 1799 484.927 1768.45 503.824C1750 515.234 1728.08 516.31 1709.44 508.646Z" fill="#CCCCCC"/>
<path fill-rule="evenodd" clip-rule="evenodd" d="M385.417 395.235L412.795 280.455C381.099 272.894 349.276 292.46 341.716 324.156C334.156 355.851 353.721 387.674 385.417 395.235Z" fill="#E5E5E5"/>
<path fill-rule="evenodd" clip-rule="evenodd" d="M385.417 395.235L412.795 280.455C381.099 272.894 349.276 292.46 341.716 324.156C334.156 355.851 353.721 387.674 385.417 395.235Z" fill="#E5E5E5"/>
<path fill-rule="evenodd" clip-rule="evenodd" d="M1536.74 394.56L1515.91 278.413C1547.98 272.662 1578.65 294.001 1584.4 326.074C1590.15 358.147 1568.81 388.81 1536.74 394.56Z" fill="#E5E5E5"/>
<circle cx="947.911" cy="176" r="66" fill="white"/>
<path fill-rule="evenodd" clip-rule="evenodd" d="M625.263 167.014C624.814 167.005 624.363 167 623.911 167C587.46 167 557.911 196.549 557.911 233C557.911 269.451 587.46 299 623.911 299C624.363 299 624.814 298.995 625.263 298.986C652.271 290.34 671.911 264.068 671.911 233C671.911 201.932 652.271 175.66 625.263 167.014Z" fill="#E3E3E3"/>
<path fill-rule="evenodd" clip-rule="evenodd" d="M1300.78 292.196C1301.23 292.141 1301.68 292.082 1302.12 292.018C1338.21 286.855 1363.27 253.418 1358.11 217.335C1352.95 181.251 1319.51 156.186 1283.43 161.349C1282.98 161.413 1282.53 161.481 1282.09 161.554C1256.58 173.939 1240.86 202.728 1245.26 233.482C1249.66 264.237 1272.82 287.462 1300.78 292.196Z" fill="#EEEEEE"/>
</g>
<path d="M980.911 146.592C980.911 156.533 972.852 164.592 962.911 164.592C952.97 164.592 944.911 156.533 944.911 146.592C944.911 136.651 952.97 128.592 962.911 128.592C972.852 128.592 980.911 136.651 980.911 146.592Z" fill="#BBBBBB"/>
<circle cx="919.411" cy="169.5" r="12.5" fill="#C4C4C4"/>
<path d="M978.911 149.91C978.911 156.814 973.315 162.41 966.411 162.41C959.508 162.41 953.911 156.814 953.911 149.91C953.911 143.007 959.508 137.41 966.411 137.41C973.315 137.41 978.911 143.007 978.911 149.91Z" fill="#AEAEAE"/>
<path d="M963.911 205C963.911 209.418 960.329 213 955.911 213C951.493 213 947.911 209.418 947.911 205C947.911 200.582 951.493 197 955.911 197C960.329 197 963.911 200.582 963.911 205Z" fill="#C4C4C4"/>
<path d="M963.911 205C963.911 209.418 960.329 213 955.911 213C951.493 213 947.911 209.418 947.911 205C947.911 200.582 951.493 197 955.911 197C960.329 197 963.911 200.582 963.911 205Z" fill="#C4C4C4"/>
<path d="M962.911 207.5C962.911 209.985 960.896 212 958.411 212C955.926 212 953.911 209.985 953.911 207.5C953.911 205.015 955.926 203 958.411 203C960.896 203 962.911 205.015 962.911 207.5Z" fill="#AEAEAE"/>
<path d="M962.911 207.5C962.911 209.985 960.896 212 958.411 212C955.926 212 953.911 209.985 953.911 207.5C953.911 205.015 955.926 203 958.411 203C960.896 203 962.911 205.015 962.911 207.5Z" fill="#AEAEAE"/>
<circle cx="921.911" cy="173" r="8" fill="#AEAEAE"/>
<path d="M237.913 533.865L251.929 549.106L270.756 540.486L260.591 558.526L274.608 573.768L254.31 569.676L244.145 587.716L241.765 567.146L221.467 563.054L240.293 554.434L237.913 533.865Z" fill="white"/>
<path d="M767.913 541.865L781.929 557.106L800.756 548.486L790.591 566.526L804.608 581.768L784.31 577.676L774.145 595.716L771.765 575.146L751.467 571.054L770.293 562.434L767.913 541.865Z" fill="white"/>
<path d="M1617.91 527.865L1631.93 543.106L1650.76 534.486L1640.59 552.526L1654.61 567.768L1634.31 563.676L1624.15 581.716L1621.76 561.146L1601.47 557.054L1620.29 548.434L1617.91 527.865Z" fill="white"/>
<path d="M657.239 387.023L639.042 396.903L642.815 417.263L627.795 403.009L609.598 412.89L618.513 394.2L603.493 379.947L624.022 382.65L632.936 363.96L636.71 384.32L657.239 387.023Z" fill="white"/>
<path d="M1444.67 637.946L1430.53 653.07L1440.54 671.194L1421.79 662.417L1407.65 677.541L1410.2 656.993L1391.45 648.216L1411.78 644.293L1414.33 623.744L1424.34 641.869L1444.67 637.946Z" fill="white"/>
<path d="M886.284 401.499L895.053 420.257L915.602 417.715L900.472 431.851L909.24 450.609L891.12 440.587L875.989 454.723L879.922 434.393L861.802 424.371L882.352 421.828L886.284 401.499Z" fill="white"/>
<path d="M1201.28 493.499L1210.05 512.257L1230.6 509.715L1215.47 523.851L1224.24 542.609L1206.12 532.587L1190.99 546.723L1194.92 526.393L1176.8 516.371L1197.35 513.828L1201.28 493.499Z" fill="white"/>
<path d="M1159.93 261.935L1159.84 282.642L1179.5 289.134L1159.78 295.439L1159.68 316.145L1147.59 299.336L1127.86 305.641L1140.11 288.947L1128.02 272.137L1147.68 278.629L1159.93 261.935Z" fill="white"/>
<path d="M563.934 613.935L563.836 634.642L583.498 641.134L563.775 647.439L563.677 668.145L551.586 651.336L531.862 657.641L544.113 640.947L532.021 624.137L551.684 630.629L563.934 613.935Z" fill="white"/>
<path d="M1077.1 684.108L1056.46 685.695L1051.59 705.82L1043.7 686.675L1023.05 688.262L1038.82 674.843L1030.93 655.699L1048.57 666.55L1064.34 653.131L1059.47 673.256L1077.1 684.108Z" fill="white"/>
<defs>
<filter id="filter0_i" x="0" y="0" width="1920.09" height="3451" filterUnits="userSpaceOnUse" color-interpolation-filters="sRGB">
<feFlood flood-opacity="0" result="BackgroundImageFix"/>
<feBlend mode="normal" in="SourceGraphic" in2="BackgroundImageFix" result="shape"/>
<feColorMatrix in="SourceAlpha" type="matrix" values="0 0 0 0 0 0 0 0 0 0 0 0 0 0 0 0 0 0 127 0" result="hardAlpha"/>
<feOffset dy="80"/>
<feGaussianBlur stdDeviation="27.5"/>
<feComposite in2="hardAlpha" operator="arithmetic" k2="-1" k3="1"/>
<feColorMatrix type="matrix" values="0 0 0 0 0 0 0 0 0 0 0 0 0 0 0 0 0 0 0.32 0"/>
<feBlend mode="normal" in2="shape" result="effect1_innerShadow"/>
</filter>
<filter id="filter1_d" x="103" y="110" width="1738.77" height="444.556" filterUnits="userSpaceOnUse" color-interpolation-filters="sRGB">
<feFlood flood-opacity="0" result="BackgroundImageFix"/>
<feColorMatrix in="SourceAlpha" type="matrix" values="0 0 0 0 0 0 0 0 0 0 0 0 0 0 0 0 0 0 127 0"/>
<feOffset dx="10" dy="15"/>
<feGaussianBlur stdDeviation="4"/>
<feColorMatrix type="matrix" values="0 0 0 0 0 0 0 0 0 0 0 0 0 0 0 0 0 0 0.25 0"/>
<feBlend mode="normal" in2="BackgroundImageFix" result="effect1_dropShadow"/>
<feBlend mode="normal" in="SourceGraphic" in2="effect1_dropShadow" result="shape"/>
</filter>
<linearGradient id="paint0_linear" x1="959.953" y1="-30.4394" x2="959.954" y2="2640.01" gradientUnits="userSpaceOnUse">
<stop offset="0.0001" stop-color="#1C1E52"/>
<stop offset="0.125" stop-color="#191D52"/>
<stop offset="0.588542" stop-color="#964656"/>
<stop offset="0.927083" stop-color="#1A1C50"/>
</linearGradient>
</defs>
</svg>
